<?xml version="1.0" encoding="utf-8"?>
<!-- Generator: Adobe Illustrator 17.0.0, SVG Export Plug-In . SVG Version: 6.00 Build 0)  -->
<!DOCTYPE svg PUBLIC "-//W3C//DTD SVG 1.1//EN" "http://www.w3.org/Graphics/SVG/1.1/DTD/svg11.dtd">
<svg version="1.1" id="Layer_1" xmlns="http://www.w3.org/2000/svg" xmlns:xlink="http://www.w3.org/1999/xlink" x="0px" y="0px"
	 width="234.328px" height="171.64px" viewBox="0 0 234.328 171.64" enable-background="new 0 0 234.328 171.64"
	 xml:space="preserve">
<g>
	<path d="M149.92,105.506c3.131-1.946,7.011-6.116,7.595-8.179c0.185-0.652,0.015-1.087-0.688-1.089
		c-1.407-0.005-3.863,1.834-7.92,7.254l-0.77,1.682C148.781,105.176,149.38,105.341,149.92,105.506z"/>
	<path d="M135.266,96.162c-2.46-0.009-8.155,9.536-9.555,14.476c-0.477,1.683-0.449,2.824,0.43,2.827
		c2.695,0.009,8.542-8.828,9.972-13.877C136.682,97.58,136.555,96.167,135.266,96.162z"/>
	<path d="M60.568,123.598c1.841-1.515,4.069-3.055,6.453-4.741l1.734-3.635c-1.529,1.462-3.138,2.38-4.72,2.374
		c-3.105-0.011-3.421-2.62-2.391-6.257c0.631-2.226,1.779-4.83,3.045-7.434c3.464-7.053,5.851-11.337,5.851-11.337l4.98,0.017
		c0,0-2.448,4.502-5.881,11.446c-1.506,3.038-2.756,5.588-3.371,7.759c-0.446,1.574,0.122,1.848,0.649,1.85
		c2.93,0.01,9.868-15.997,12.47-21.041l4.804,0.017c-1.38,2.387-6.174,12.477-10.318,21.103c3.145-2.554,6.237-5.532,8.782-9.135
		c3.353-6.313,8.645-12.487,12.764-12.472c2.168,0.008,3.06,1.207,2.778,3.651l1.505-3.038l4.161,0.015
		c-3.804,7.214-6.578,13.074-8.921,18.445c-0.287,0.597-0.41,1.031-0.517,1.411c-0.231,0.814-0.163,1.195,0.131,1.196
		c0.637,0.002,3.779-2.548,8.418-9.115c3.352-6.321,8.652-12.509,12.776-12.494c2.168,0.008,3.06,1.207,2.778,3.651l1.506-3.038
		l4.16,0.014c-3.804,7.214-6.578,13.074-8.921,18.445c-0.287,0.597-0.41,1.031-0.517,1.411c-0.231,0.814-0.163,1.195,0.131,1.196
		c0.637,0.002,3.779-2.548,8.418-9.114c3.352-6.321,8.652-12.509,12.776-12.495c2.168,0.008,3.06,1.207,2.778,3.651l1.505-3.038
		l4.161,0.014c-3.804,7.214-6.578,13.074-8.921,18.445c-0.287,0.597-0.41,1.031-0.517,1.411c-0.231,0.814-0.163,1.195,0.131,1.196
		c0.64,0.002,3.807-2.569,8.48-9.202c4.848-10.421,10.275-21.558,13.832-26.521c-0.096-0.961-0.195-1.558-0.195-1.558l-3.484,2.062
		c-1.364-4.174,0.049-8.331,0.049-8.331c-5.587,5.521-5.229,15.382-5.229,15.382c-6.627-6.427-5.572-20.445-5.572-20.445
		l-2.12,6.236c-3.301-5.296,9.893-29.101-0.333-14.027c-8.597,12.674-12.98,26.449-14.158,30.516
		c1.098-4.812-1.248-8.391-1.248-8.391s-0.648,1.72-3.766,2.894c-9.61,3.372-2.42-13.345-2.42-13.345
		c1.762-16.097-5.132-24.469-5.132-24.469c3.244,15.016-0.281,20.167-0.281,20.167c-1.663-18.795-7.643-18.686-7.643-18.686
		c5.896,12.671,1.423,17.643,1.423,17.643c0.158-3.193-1.63-6.119-1.63-6.119c-3.32,20.961-16.81,24.895-16.81,24.895
		c-4.157-1.413-3.434-6.269-3.434-6.269c-8.127,3.48-5.636,13.852-5.636,13.852c-6.265-5.747-1.863-13.619-1.863-13.619
		c-6.158,2.089-3.809,7.919-3.809,7.919c-5.802-0.133-6.603-9.14-6.603-9.14c-4.067,6.038,1.525,13.721,1.525,13.721
		s-3.809-2.439-6.27-8.841c-2.462-6.402,6.351-17.32,6.351-17.32C52.549,76.429,49.992,83.512,52.983,92.048
		c-28.025-0.464-25.59,4.35-36.601-19.321C4.326,46.808,9.223,0.72,4.761,0.007s-4.828,56.487-4.753,67.882
		c0.075,11.395-0.549,29.463,15.117,39.572c12.025,7.759,30.586,13.136,38.57,15.218c-0.259,5.099-1.594,10.222-1.594,10.222
		c1.928-3.756,7.078-8.459,9.123-10.242C60.978,122.937,60.76,123.253,60.568,123.598z"/>
	<path d="M114.935,96.091c-2.46-0.009-8.155,9.536-9.555,14.477c-0.477,1.683-0.449,2.824,0.431,2.827
		c2.695,0.009,8.542-8.828,9.972-13.877C116.352,97.509,116.224,96.096,114.935,96.091z"/>
	<path d="M163.762,128.27c-14.823-0.052-13.976-15.048-15.373-20.052c-0.543,0.053-1.144,0.104-1.671,0.103l-0.059,0
		c-1.404,3.093-2.823,6.24-4.095,9.279l-4.745-0.016c0.079-0.489,0.218-0.978,0.356-1.466c0.29-1.023,0.687-2.054,1.122-3.033
		c-2.889,3.262-5.077,4.758-6.77,4.752c-1.875-0.007-2.484-1.584-1.422-5.33c0.046-0.163,0.108-0.38,0.169-0.597
		c-2.286,3.307-5.151,6.177-8.55,6.165c-2.87-0.01-3.212-2.946-2.089-6.909c0.02-0.071,0.044-0.145,0.065-0.216
		c-3.769,4.702-6.487,6.824-8.504,6.817c-1.875-0.007-2.484-1.584-1.422-5.33c0.046-0.163,0.108-0.38,0.169-0.597
		c-2.286,3.307-5.151,6.177-8.55,6.165c-2.87-0.01-3.212-2.946-2.089-6.909c0.02-0.071,0.044-0.145,0.065-0.217
		c-3.769,4.702-6.487,6.824-8.504,6.817c-1.875-0.007-2.484-1.584-1.422-5.33c0.046-0.163,0.108-0.38,0.169-0.597
		c-2.286,3.307-5.151,6.177-8.55,6.165c-2.87-0.01-3.212-2.946-2.089-6.909c0.091-0.32,0.194-0.648,0.304-0.98
		c-2.672,2.919-5.467,5.3-8.139,7.311l-3.272,6.999c-2.48,5.329-5.731,9.256-9.356,9.457c0.363,3.738,1.122,6.864,1.122,6.864
		l3.429-2.117c1.434,4.129,0.105,8.293,0.105,8.293c5.459-5.598,4.921-15.407,4.921-15.407c6.715,6.274,5.923,20.247,5.923,20.247
		l1.995-6.246c3.383,5.21-9.309,29.148,0.591,13.955c8.323-12.773,12.431-26.565,13.528-30.635
		c-1.004,4.809,1.397,8.328,1.397,8.328l3.695-2.95c-1.012,7.478,2.655,13.238,2.655,13.238c-1.456,16.054,5.559,24.26,5.559,24.26
		c-3.506-14.886,1.618-25.18,1.618-25.18c-2.139,16.754,6.241,23.56,6.241,23.56c-6.102-12.503-1.742-17.534-1.742-17.534
		c-0.098,3.181,1.735,6.061,1.735,6.061c7.615-20.97,16.272-25.088,16.272-25.088c4.164,1.33,3.534,6.176,3.534,6.176
		c4.514-5.071,5.236-10.766,5.34-12.955l0.638,0.041c1.947,3.899,1.482,12.544,1.482,12.544c3.077-3.731,3.05-9.198,2.728-12.275
		l1.724,0.11c4.552,6.049,5.934,13.187,5.934,13.187c3.197-4.941,0.034-10.845-1.268-12.889l0.501,0.032
		c1.312,1.134,3.65,3.6,5.4,7.912c2.568,6.327-6.002,17.356-6.002,17.356c13.214-11.093,17.319-17.854,16.765-24.491
		C164.815,128.242,164.296,128.272,163.762,128.27z"/>
	<path d="M223.438,86.683c2.505-10.997,14.359-66.358,9.895-66.621c-4.464-0.263-9.569,45.325-26.753,67.802
		c-15.861,20.747-12.234,16.304-40.373,10.684c6.401-9.506-0.45-13.933-0.45-13.933c-0.734-0.719-1.516-1.02-2.315-1.014
		c-2.821,3.617-6.75,7.493-9.759,10.07l-2.214,4.503c2.905-3.631,5.879-5.849,8.457-5.84c2.402,0.008,3.026,1.532,2.426,3.65
		c-1,3.529-5.391,8.676-10.402,11.049c4.019,5.068,1.027,18.317,12.745,18.358c7.558,0.026,13.135-6.203,14.75-11.904
		c1.338-4.723-0.084-9.022-5.298-9.04c-3.867-0.013-7.002,2.15-9.597,6.76l-3.976-1.698c2.63-3.904,7.956-7.798,13.932-7.777
		c8.261,0.029,10.745,5.961,8.976,12.204c-1.636,5.775-6.898,11.785-14.538,13.699c9.336-0.753,21.89-2.388,31.438-5.935
		C217.68,115.276,220.933,97.681,223.438,86.683z"/>
	<path d="M94.604,96.021c-2.46-0.009-8.155,9.536-9.555,14.476c-0.477,1.683-0.449,2.824,0.43,2.827
		c2.695,0.009,8.542-8.828,9.972-13.877C96.021,97.438,95.894,96.025,94.604,96.021z"/>
	<path d="M62.56,128.189l2.818-5.805c-2.979,2.26-5.184,4.282-6.033,6.71c-0.021,0.527-0.027,1.06-0.018,1.596
		c0.156,0.174,0.38,0.261,0.632,0.262C60.955,130.955,61.731,129.87,62.56,128.189z"/>
</g>
</svg>
